<svg xmlns="http://www.w3.org/2000/svg" width="64.91111mm" height="24.26968mm" viewBox="0 0 184 68.79596"><title>logo-loosing-my-mind</title><path d="M258.613,401.97327c0-8.99777,6.37154-15.49838,15.06789-15.49838,8.69655,0,15.0681,6.45731,15.0681,15.4555,0,8.99735-6.37155,15.54125-15.0681,15.54125C264.98453,417.47164,258.613,410.97062,258.613,401.97327Zm7.87825-.04288a7.19047,7.19047,0,1,0,7.18964-7.27582A7.0621,7.0621,0,0,0,266.49124,401.93039Z" transform="translate(-205.66003 -386.47489)" fill="#181818"/><path d="M384.62322,417.04116c-.73191,0-1.11952,0-1.421-.47337-.55954-.861-1.16239-.43049-1.98049-.0866a12.75971,12.75971,0,0,1-5.33821.99045c-8.69634,0-15.06788-6.501-15.06788-15.49837,0-8.99777,6.32866-15.49838,15.025-15.49838,5.72582,0,10.84878,2.79817,13.1307,7.57683.43049.861.55955,1.55-.30142,1.98049l-4.90815,2.3248c-.64573.301-1.07621.3443-1.5067-.30143a7.265,7.265,0,0,0-6.37155-3.401,7.09833,7.09833,0,0,0-7.18963,7.3187c0,4.43435,2.92764,7.79249,7.49106,7.79249a8.56982,8.56982,0,0,0,4.90772-1.24858c.64573-.43049.73191-.73234.73191-1.67907v-4.73578c0-.689.25855-.99.94716-.99h5.51057c.689,0,.94715.301.94715.99V416.0507c0,.689-.25812.99046-.94715.99046Z" transform="translate(-205.66003 -386.47489)" fill="#181818"/><path d="M303.78755,417.47164a17.20263,17.20263,0,0,1-12.57073-4.9939c-.47379-.47379-.64573-.99-.12906-1.50712l4.34817-4.13251c.55955-.51667.90385-.51667,1.4634.04288a10.83242,10.83242,0,0,0,7.362,2.84147c2.66911,0,4.04675-.90428,4.04675-2.10956s-.90385-1.76525-3.53008-1.76525h-1.24858c-6.71585,0-12.14066-2.19531-12.14066-8.91158,0-6.58679,5.38151-10.46118,12.485-10.46118a17.55328,17.55328,0,0,1,10.97826,3.91727c.60285.47379,1.1191.99045.43049,1.76525l-3.96057,4.26241c-.47379.47336-.90427.47336-1.50712,0a10.48926,10.48926,0,0,0-6.50061-2.19616c-2.75529,0-4.21911.90428-4.21911,2.06667,0,1.03334.73191,1.80813,3.61626,1.80813h1.55c6.62967,0,11.75306,2.58335,11.75306,8.78253C316.01439,413.7692,310.50382,417.47164,303.78755,417.47164Z" transform="translate(-205.66003 -386.47489)" fill="#181818"/><path d="M226.45373,401.97327c0-8.99777,6.37155-15.49838,15.06789-15.49838s15.06789,6.45731,15.06789,15.4555c0,8.99735-6.37155,15.54125-15.06789,15.54125S226.45373,410.97062,226.45373,401.97327Zm7.87825-.04288a7.19047,7.19047,0,1,0,7.18964-7.27582A7.062,7.062,0,0,0,234.332,401.93039Z" transform="translate(-205.66003 -386.47489)" fill="#181818"/><path d="M228.47711,441.75254c0-.68861-.73192-.77479-1.07622-.301l-5.898,7.44776a.84792.84792,0,0,1-1.46382,0l-5.898-7.44776c-.34452-.47379-1.07643-.47379-1.07643.301v12.52827c0,.68861-.25812.99-.94715.99H206.607c-.68861,0-.94694-.30143-.94694-.99v-28.1557c0-.689.25833-.99.94694-.99h3.53029c.99025,0,1.29167.301,1.89431,1.1624l8.00753,10.24593a.83213.83213,0,0,0,1.46382,0l8.00752-10.24593c.60264-.86139.90407-1.1624,1.8941-1.1624h3.53029c.68882,0,.94716.301.94716.99v28.1557c0,.68861-.25834.99-.94716.99h-5.51057c-.68882,0-.94715-.30143-.94715-.99Z" transform="translate(-205.66003 -386.47489)" fill="#181818"/><path d="M267.72927,425.13507c.86119,0,1.11952.64573.68882,1.33434l-10.71971,17.86648a3.04828,3.04828,0,0,0-.51667,2.06625v7.87867c0,.68861-.25812.99-.94716.99H250.2935c-.68883,0-.94716-.30143-.94716-.99v-7.87867a3.04819,3.04819,0,0,0-.51646-2.06625L238.11,426.46941c-.43048-.68861-.17215-1.33434.68883-1.33434h6.50081c.99025,0,1.29146.25813,1.85122,1.1624l5.51057,9.29877a.66252.66252,0,0,0,1.20549,0l5.51058-9.29877a1.755,1.755,0,0,1,1.85122-1.1624Z" transform="translate(-205.66003 -386.47489)" fill="#181818"/><path d="M308.20609,441.75254c0-.68861-.73192-.77479-1.07664-.301l-5.89776,7.44776a.84791.84791,0,0,1-1.46382,0l-5.89818-7.44776c-.34431-.47379-1.07622-.47379-1.07622.301v12.52827c0,.68861-.25812.99-.94715.99h-5.51057c-.68862,0-.947-.30143-.947-.99v-28.1557c0-.689.25833-.99.947-.99H289.866c.99025,0,1.29167.301,1.8941,1.1624l8.00774,10.24593a.83213.83213,0,0,0,1.46382,0l8.00731-10.24593c.60285-.86139.90428-1.1624,1.89431-1.1624h3.5305c.68861,0,.94716.301.94716.99v28.1557c0,.68861-.25855.99-.94716.99h-5.51057c-.689,0-.94715-.30143-.94715-.99Z" transform="translate(-205.66003 -386.47489)" fill="#181818"/><path d="M327.75184,416.094c0,.689-.25855.94716-.94716.94716h-6.1996c-.68861,0-.94715-.25813-.94715-.94716V387.85254c0-.689.25854-.94716.94715-.94716h6.1996c.68861,0,.94716.25812.94716.94716Z" transform="translate(-205.66003 -386.47489)" fill="#181818"/><path d="M327.75184,454.32369c0,.689-.25855.94716-.94716.94716h-6.1996c-.68861,0-.94715-.25813-.94715-.94716V426.08223c0-.689.25854-.94716.94715-.94716h6.1996c.68861,0,.94716.25813.94716.94716Z" transform="translate(-205.66003 -386.47489)" fill="#181818"/><path d="M340.3232,403.26473c-.47379-.51667-1.11952-.34431-1.11952.38761V416.0507c0,.689-.25813.99046-.94716.99046H332.746c-.68861,0-.94715-.30143-.94715-.99046V387.89542c0-.689.25854-.99.94715-.99h3.5305c.99,0,1.1624.34431,1.851,1.162l10.97826,12.65733c.47337.51667,1.1191.34472,1.1191-.38761V387.89542c0-.689.25854-.99.94716-.99h5.51057c.689,0,.94715.301.94715.99V416.0507c0,.689-.25812.99046-.94715.99046h-3.53008c-.99046,0-1.1624-.34431-1.85143-1.1624Z" transform="translate(-205.66003 -386.47489)" fill="#181818"/><path d="M340.3232,441.49442c-.47379-.51667-1.11952-.3443-1.11952.38761v12.39878c0,.68861-.25813.99-.94716.99H332.746c-.68861,0-.94715-.30143-.94715-.99v-28.1557c0-.689.25854-.99.94715-.99h3.5305c.99,0,1.1624.34431,1.851,1.1624l10.97826,12.65691c.47337.51667,1.1191.3443,1.1191-.38761V426.12511c0-.689.25854-.99.94716-.99h5.51057c.689,0,.94715.301.94715.99v28.1557c0,.68861-.25812.99-.94715.99h-3.53008c-.99046,0-1.1624-.34431-1.85143-1.1624Z" transform="translate(-205.66003 -386.47489)" fill="#181818"/><path d="M375.23787,425.13507c8.56728,0,14.42216,6.28536,14.42216,15.02459,0,8.73964-5.85488,15.11119-14.42216,15.11119h-12.614c-.68862,0-.94716-.30143-.94716-.99v-28.1557c0-.689.25854-.99.94716-.99Zm-6.15633,21.09513c0,.68861.25855.99.94716.99h4.43438c4.56341,0,7.3187-2.71241,7.3187-7.01728,0-4.30529-2.75529-7.01728-7.3187-7.01728H370.0287c-.68861,0-.94716.301-.94716.99Z" transform="translate(-205.66003 -386.47489)" fill="#181818"/></svg>